<?xml version="1.0" encoding="UTF-8"?>
<svg width="1200pt" height="1200pt" version="1.1" viewBox="0 0 1200 1200" xmlns="http://www.w3.org/2000/svg">
 <path d="m642.54 289.84c-8.6953-0.19531-16.648-4.9492-20.941-12.516-4.293-7.5664-4.293-16.832 0-24.395 4.293-7.5664 12.246-12.32 20.941-12.516h427.02c8.6953 0.19531 16.648 4.9492 20.941 12.516 4.293 7.5625 4.293 16.828 0 24.395-4.293 7.5664-12.246 12.32-20.941 12.516zm-267.79 0c-8.6953-0.19531-16.648-4.9492-20.941-12.516s-4.293-16.832 0-24.395c4.293-7.5664 12.246-12.32 20.941-12.516h0.74609c8.6953 0.19531 16.648 4.9492 20.941 12.516 4.293 7.5625 4.293 16.828 0 24.395-4.293 7.5664-12.246 12.32-20.941 12.516zm-122.12 0c-6.6523 0.15234-13.082-2.3867-17.84-7.0352-4.7578-4.6523-7.4414-11.023-7.4414-17.68 0-6.6523 2.6836-13.023 7.4414-17.676 4.7578-4.6484 11.188-7.1875 17.84-7.0352h0.73438-0.003907c6.6523-0.15234 13.082 2.3867 17.84 7.0352 4.7578 4.6523 7.4414 11.023 7.4414 17.676 0 6.6562-2.6836 13.027-7.4414 17.68-4.7578 4.6484-11.188 7.1875-17.84 7.0352zm-122.13 0h-0.003906c-8.6953-0.19531-16.648-4.9492-20.941-12.516-4.293-7.5664-4.293-16.832 0-24.395 4.293-7.5664 12.246-12.32 20.941-12.516h0.74609c8.6953 0.19531 16.648 4.9492 20.941 12.516 4.293 7.5625 4.293 16.828 0 24.395-4.293 7.5664-12.246 12.32-20.941 12.516zm1037.9 144.41h-1136.8v583.23c0.027344 9.8281 3.9414 19.242 10.891 26.188 6.9453 6.9453 16.359 10.863 26.184 10.887h1062.7c9.8242-0.023438 19.238-3.9414 26.184-10.887 6.9492-6.9453 10.863-16.359 10.891-26.188zm-1136.8-49.426h1136.8v-202.31c-0.027344-9.8281-3.9414-19.242-10.891-26.188-6.9453-6.9453-16.359-10.863-26.184-10.887h-1062.7c-9.8242 0.023438-19.238 3.9414-26.184 10.887-6.9492 6.9453-10.863 16.359-10.891 26.188z" fill="#fff" fill-rule="evenodd"/>
</svg>
