<?xml version="1.0" encoding="UTF-8"?>
<svg width="1200pt" height="1200pt" version="1.1" viewBox="0 0 1200 1200" xmlns="http://www.w3.org/2000/svg">
 <g fill="#fff">
  <path d="m1108.8 30h-1017.6c-31.199 0-56.398 25.199-56.398 57.602v786c0 31.199 25.199 57.602 57.602 57.602h394.8v33.602c0 43.199-24 82.801-63.602 103.2l-70.801 36c-3.6016 2.3984-8.3984 4.8008-12 7.1992-27.602 18-14.398 61.199 19.199 61.199h482.4c33.602 0 45.602-43.199 19.199-61.199-3.6016-2.3984-8.3984-4.8008-12-7.1992l-70.801-36c-38.398-19.199-63.602-58.801-63.602-103.2v-33.602h394.8c31.199 0 57.602-25.199 57.602-57.602l0.003906-786c-2.4023-32.402-27.602-57.602-58.801-57.602zm-508.8 838.8c-21.602 0-39.602-18-39.602-39.602 0-21.602 18-39.602 39.602-39.602s39.602 18 39.602 39.602c0 21.602-18 39.602-39.602 39.602zm450-139.2h-900v-584.4h900z"/>
  <path d="m424.8 588c7.1992 7.1992 16.801 10.801 26.398 10.801 9.6016 0 19.199-3.6016 26.398-10.801 14.398-14.398 14.398-38.398 0-52.801l-104.4-104.4 104.4-104.4c14.398-14.398 14.398-38.398 0-52.801-14.398-14.398-38.398-14.398-52.801 0l-130.8 130.8c-14.398 14.398-14.398 38.398 0 52.801z"/>
  <path d="m722.4 588c7.1992 7.1992 16.801 10.801 26.398 10.801 9.6016 0 19.199-3.6016 26.398-10.801l130.8-130.8c14.398-14.398 14.398-38.398 0-52.801l-130.8-130.8c-14.398-14.398-38.398-14.398-52.801 0-14.398 14.398-14.398 38.398 0 52.801l104.4 104.4-104.4 104.4c-14.398 14.402-14.398 37.199 0 52.801z"/>
  <path d="m568.8 612h7.1992c18 0 33.602-13.199 37.199-31.199l49.199-276c3.6016-20.398-9.6016-39.602-30-43.199-20.398-3.6016-39.602 9.6016-43.199 30l-49.199 276c-4.8008 21.598 8.3984 40.797 28.801 44.398z"/>
 </g>
</svg>
